<!DOCTYPE svg PUBLIC "-//W3C//DTD SVG 1.1//EN" "http://www.w3.org/Graphics/SVG/1.1/DTD/svg11.dtd">

<!-- Uploaded to: SVG Repo, www.svgrepo.com, Transformed by: SVG Repo Mixer Tools -->
<svg width="300px" height="300px" viewBox="-2.4 -2.4 28.80 28.80" fill="none" xmlns="http://www.w3.org/2000/svg">

<g id="SVGRepo_bgCarrier" stroke-width="0" transform="translate(0,0), scale(1)">

<path transform="translate(-2.4, -2.4), scale(0.8999999999999999)" d="M16,24.648671216478473C18.319608316561215,24.17567705066359,20.81688243436744,26.630674103859953,22.879509384601725,25.468832338677586C24.940406829425378,24.30796477371061,24.749032881426825,21.31285271985034,25.737276918102168,19.163833058365448C26.91120478279394,16.611028317064108,30.16521359748526,14.350146427022754,29.207209211233547,11.708717595001556C28.240613922966375,9.043601756321143,24.21025660986214,9.486295765581755,21.729623212411703,8.11385019932457C19.68842256321684,6.984527025772179,18.281581774001996,4.887703253843962,16,4.4016420137333245C13.369435190888954,3.8412344894984294,10.370553390716339,3.6763990691704835,8.17190808278455,5.225555813358122C5.964964937517573,6.780559180747604,5.281997606165315,9.695928314031914,4.7341613654743036,12.33950713306097C4.236219378020778,14.742321684863898,4.917058885843746,17.069005358238744,5.212740302280377,19.50499314416853C5.598963923848029,22.68691792021546,3.834376902428986,27.38282933536183,6.727579363634449,28.762392122897353C9.856255267453305,30.254235472625876,12.603736883525844,25.341207377948194,16,24.648671216478473" fill="#2980b9" strokewidth="0"/>

</g>

<g id="SVGRepo_tracerCarrier" stroke-linecap="round" stroke-linejoin="round" stroke="#CCCCCC" stroke-width="0.048"/>

<g id="SVGRepo_iconCarrier"> <path d="M16.19 2H7.81C4.17 2 2 4.17 2 7.81V16.18C2 19.83 4.17 22 7.81 22H16.18C19.82 22 21.99 19.83 21.99 16.19V7.81C22 4.17 19.83 2 16.19 2ZM10.49 16.72C10.15 17.06 9.7 17.29 9.15 17.36L7.8 17.51C7.06 17.59 6.43 16.96 6.51 16.21L6.66 14.85C6.79 13.64 7.8 12.87 8.87 12.85C8.97 12.84 9.09 12.85 9.2 12.86C9.67 12.92 10.12 13.14 10.5 13.51C10.87 13.88 11.08 14.32 11.14 14.77C11.15 14.88 11.16 14.99 11.16 15.09C11.16 15.71 10.93 16.28 10.49 16.72ZM17.44 7.55C16.72 9.35 15.07 11.71 13.5 13.25C13.27 11.83 12.14 10.71 10.7 10.51C12.24 8.93 14.62 7.26 16.43 6.53C16.75 6.41 17.07 6.5 17.27 6.7C17.47 6.92 17.57 7.23 17.44 7.55Z" fill="#292D32"/> </g>

</svg>